<svg id="Layer_1" data-name="Layer 1" xmlns="http://www.w3.org/2000/svg" viewBox="0 0 24.25 24.25"><title>question</title><path d="M12.12,0A12.13,12.13,0,1,0,24.25,12.12,12.09,12.09,0,0,0,12.12,0Zm1.11,18.74a.52.52,0,0,1-.56.55h-1.1a.52.52,0,0,1-.55-.55V17.63a.52.52,0,0,1,.55-.55h1.1a.52.52,0,0,1,.56.55Zm1.48-4.91c-.77.66-1.32,1.1-1.48,1.71a.54.54,0,0,1-.56.44h-1.1a.53.53,0,0,1-.55-.6,5.21,5.21,0,0,1,2.32-3.26c1-.77,1.54-1.26,1.54-2.2a2.76,2.76,0,1,0-5.51,0v.33a.51.51,0,0,1-.39.61l-1,.33a.55.55,0,0,1-.72-.44,3.91,3.91,0,0,1-.06-.83,5,5,0,1,1,9.92,0C17.08,12,15.76,13,14.71,13.83Z"/></svg>