<svg id="Layer_1" data-name="Layer 1" xmlns="http://www.w3.org/2000/svg" viewBox="0 0 24.56 24.56"><defs><style>.cls-1{fill:#90dfaa;}.cls-2{fill:#fff;}.cls-3{fill:#ff7058;}</style></defs><title>question</title><circle class="cls-1" cx="12.28" cy="12.28" r="12.28"/><path class="cls-2" d="M12.73,4.23a7.6,7.6,0,0,0-7.6,7.6,7.5,7.5,0,0,0,.92,3.63l-.92,4,4-.92A7.6,7.6,0,1,0,12.73,4.23Z"/><path class="cls-3" d="M13.13,13.55H11.72v-.76a1.71,1.71,0,0,1,.12-.74,2.4,2.4,0,0,1,.52-.65l.91-.91a1.08,1.08,0,0,0,.29-.78,1,1,0,0,0-1.07-1.08,1.14,1.14,0,0,0-1.17,1.08H9.8A2.55,2.55,0,0,1,10.67,8a2.78,2.78,0,0,1,1.86-.63,2.67,2.67,0,0,1,1.82.61,2.12,2.12,0,0,1,.7,1.7,1.92,1.92,0,0,1-.41,1.25,5.58,5.58,0,0,1-.37.43l-.33.31-.35.34a2.3,2.3,0,0,0-.23.25,1.19,1.19,0,0,0-.23.78v.55Zm-.68,2.79a1,1,0,0,1-.68-.27.9.9,0,0,1,0-1.31.93.93,0,0,1,.68-.28,1,1,0,0,1,.68.27.91.91,0,0,1,0,1.31A.89.89,0,0,1,12.45,16.34Z"/></svg>